<mxfile host="app.diagrams.net" agent="Mozilla/5.0 (Windows NT 10.0; Win64; x64) AppleWebKit/537.36 (KHTML, like Gecko) Chrome/135.0.0.0 Safari/537.36" version="26.2.14">
  <diagram name="Page-1" id="khqiB35b00xcH0A0cti7">
    <mxGraphModel dx="786" dy="451" grid="1" gridSize="10" guides="1" tooltips="1" connect="1" arrows="1" fold="1" page="1" pageScale="1" pageWidth="827" pageHeight="1169" math="0" shadow="0">
      <root>
        <mxCell id="0" />
        <mxCell id="1" parent="0" />
        <mxCell id="ADYw539KpgePm6i6cBI5-1" value="" style="shape=image;verticalLabelPosition=bottom;labelBackgroundColor=default;verticalAlign=top;aspect=fixed;imageAspect=0;image=data:image/png,iVBORw0KGgoAAAANSUhEUgAAAMgAAAGpCAYAAADIh3nVAAAAAXNSR0IArs4c6QAAAARnQU1BAACxjwv8YQUAAAAJcEhZcwAADsMAAA7DAcdvqGQAADDZSURBVHhe7Z0HtNRE+8ZHeu8IXIqgKL0oIEUBUURAiqKAShcQED6OYgH/l6KACBwR5dDslA8QRRBEEASpCh9FAelFeq+CFBHJP8/LZA3Lvbm79+7eu9k8v3NyknmTTbK782Teycy8c5thokhEcOLECbVs2TL1888/q/Xr16tNmzapdOnSqTvvvFMVKlRI5cuXT2XPnl1lypRJpUmTRl2/fl1dvnxZnT9/Xp08eVIdPnxY7du3Tx09elSVK1dO3XfffapatWqqVq1a6u6779ZXIcFAgaQwW7ZsUd98842aO3euCKJOnTqqRo0aqkqVKqpChQrq9ttv10cGzp9//inngshWrVolosuaNat6/PHHVdOmTUUwJDAokBTg2rVr6rPPPlOTJ09We/bsUc2aNVNNmjRR9erV00eEnrVr14oIZ86cqf7++2/VunVr1aFDB1WwYEF9BIkTCIQkD6YLZcTGxhq5cuUyzCe5MWvWLL0neVm5cqXxwgsvGKlSpTI6duxobNiwQe8h/qTSOiFhBPWEfv36ST3i9OnTavny5eJWPfHEE/qI5OWBBx5QH374odR5ihQpIm4dSpOdO3fqI4gFBRJmPvroI6lkowK9efNmNW7cOFWmTBm9N2XJnTu36t+/vzp06JAIpVSpUqpv3756LxF0SUJCjFn5NurXr2/UrFnTMCvJ2hrZ7N271zDrJkbJkiUNs76ird6GAgkDY8eOFf9++PDh2uIuvvzyS8N0B41XX31VW7wL32KFmE6dOqmNGzeKK1W5cmVtdR9nzpxRL774ojp27Jj69NNP1V133aX3eAvWQULE/v371YMPPogSWV6pulkcIFeuXOqLL75Qppso7TILFy7UezwGShCSNNasWWPccccdxttvv60t0cVXX31lpEmTxpg0aZK2eAcKJImgAp4jRw7j448/1pboZPny5UbevHkN03XUFm9AgSSBFStWGFmyZDGmTJmiLdHNL7/8YsTExBjjx4/XluiHAkkkZkVcnqheczvWr19v5M6d2zMPBb7FSgSnTp2SDn94y9OjRw9t9Q5Lly6V1vcff/xR1tEMBZIIGjZsqCpWrKiGDBmiLd5j2rRp6rXXXpPewoULF9bW6IMCCZLevXur3bt3q6+//lpbvMtbb70lY1cWLFigLdEHBRIE6Creq1cvGWeBfkxESYfL8uXLq4EDB2pLdEGBBAhG7ZUtW1aNGTNGNW7cWFsJOjpCIHh4PPTQQ9oaPVAgAdK1a1cZ/jpq1ChtIRaff/65dK1Zs2aNtkQPFEgA4G1N27ZtZbwExoOTW8FQXowzef3117UlOqBAAqB27dqqXbt26vnnn9cW4g86aKLP1t69exM1jj5SYWfFBMDrTIzhpjicQYCJjh07qqFDh2pLdMASJAHQKzc2NlY9+eST2kLiAxV2tIkcPHhQhhdHAyxBHMCbmbRp01IcAQJR/Oc//1GjR4/WFvfDEsSBxx57TLVq1Uoq6CQwtm/frqpXry4BIfBwcTssQeIBgdewUBzBUbJkSXmpMWHCBG1xNxRIPEydOlW1adNGp0gw4HebMmWKTrkbuljxgDHYX375papUqZK2kGDIkyePWr16tSpevLi2uBOWIHGADngZM2akOJIA+mjNmTNHp9wLBRIH33//vXRpJ4kHgbLnz5+vU+6FAomDxYsXq0cffVSnSGLA77do0SJ15coVbXEnFIgfFy9elEFAeBNDEk+WLFmk68mKFSu0xZ1QIH6gR2rVqlWl5y5JGpi8x+09fCkQP3799VeZmYkkHbzkwO/pZigQPzDjEwZGkaSD3xER7d0MBeLHrl27VIkSJXQqdGBaNIy4u+2221TmzJklMgimGoB92LBhYo9rueOOO2TOQQtsw/btt99qyw0se1znsI51OgYL7iOU3HPPPfJ7urmpjQLxA5NgFi1aVKdCB4bqInMisxw/fly9+eabauXKlXqvkjYD7MMaLwguXLggaf+uLpMmTVIHDhxQM2bM0JYbFChQQOID43h0Ocdnrc8/88wzMo4eQKQ4NxZcx7ruunXrZILQUJIhQwaVP39+uV+3QoH4gadsTEyMToUGlBJoE3j66acljTc8mC8Qwa4BuojHF+z6kUceUUeOHJFtnAcZG93vUQLZS5b46Nmzp6ytc6ADJq7vTzhKTYDfMpD7jFQoEBvnzp2Tpx6WUIIMidLD/iSHbfDgwbJ+7rnnpASICzzxrRb9HTt2SJdydL9H8Do89Z2AoF555RXp9gEB4hq4VlzgPjDuPtQg+gvu1a1QIDbwdM6WLZtOhRa4WJjaGRkVYknMUxXTKuAceNpj7e9mWfTp00fqFJj6GQKB6xWfAMMNfk/8rm6FArHx119/qfTp0+tUaMETGm4Rnvp4osL1CKZSjNIAoDTBuRo0aBCvm4U6CK4TCQEm8Hvid3UrFIiN69evy5M3nCCDo7UemRjB1iyXKyGWLFmiunXrJveHBaUEKr/xuVm4DiboROzglKwDpEqVSl4CuBUKxAZGwGGS/3CAaaDtGbV79+7iJlmV54RAizSOtd5OWW+o4nOzAK5RrFgxEVNKgYAXadKk0Sn3QYHYgEuCp3s4wNPenlFR4cZLAf+3V1u3btVb/4JSpmDBgrfUI/BWDAKJrxSCKzZixAg5BmGL7KBegBA94Qa/J9p9XIv5JCIa01eW2WnDAWZmwpwa+MmxmGI0TPdI772BWSLcsn/OnDk+m+mW6SMN2YdjrH2xsbFGkSJFfOnatWsbpgjkWHzOsuN8/p/FdcMFpsFevHixTrkPjij0A5NXIvBANAU/S0nwxg3RYcqUKaMt7oIulh9WXCcSGhAry80xsigQPzAWHfN/kKQDcaAeFOouLMkJBeIHwtZs27ZNp0hSwAuHUqVK6ZQ7oUD8wFwXGzZs0CmSFPA74vd0MxSIH2ibQJcOknTwO8bXCdMtUCB+oA6Chi26WUnnp59+knHpboYCiQP0oMWkOSTx/PLLL1JBZ+C4KKRevXoSG4skHvx+GHvidthQGAd//PGHypEjh6zD1f092kFEE0wT7XaRsASJA7y3R+jMr776SltIMCBQA/qeRUMJQoHEw7PPPisR3knw4HfD6MlogC6WA+hBi7Hj9957r7aQQMBgsHnz5qmKFStqi3thCeJA586d1YcffqhTJBA+/fRTEUY0iAOwBHEA4XnwNPz9999lHDlJGJS2GCnZuHFjbXE3LEEcyJcvn3rppZdk0BFJmMmTJ0ugiGgRB2AJkgAoRVB6YNSeW8c0JBelS5dWw4cPV40aNdIW98MSJAFQimA8Od7pk/hBhBYMjoomcQCWIAGCQMwDBgxQzZs31xZisWfPHhkmgO4l5cqV09bogAIJELzuRQgdNIKhjxH5F0R6ROUcYYaiDQokCBDnFgHcPvvsM20ho0aNkh4Hbp9JKj4okCBBQDa0j4Qjjq3bwFR1CMCNFxjR0u7hDwUSJIhkiCnaEOmwVq1a2uo9ENMLYz0Q+7djx47aGn3wLVaQYITcxIkTVevWrZMl8Fqkgu+PN1bRLA7AEiSRvPPOO2rWrFnqhx9+cHXUjsTQoUMHdfXqVTVlyhRtiV4okCTw+uuvy7jr7777LiIiqScHiPeLWbjwnb0AXawkgFZjVE4bNmyozp49q63RC6LLI2bY7NmztSX6oUCSyMiRI2X0XN26dWXCymgFM1MhOj2mknNztPZgoUBCAOb6wAAhvNVatGiRtkYHmJ0Kk33Chfzmm29kvg9PgToICQ3Tp083MmbMaJilira4G0SCz58/vzFo0CBt8R4USIj57bffjBo1ahgtW7Y0jh07pq3u44033hBxzJo1S1u8CV2sEINOjQiYhrnW0T3ebd1SFi9eLG096ID466+/SvAKT6OFQsLAkiVLjOrVqxv16tUzVq5cqa2RiVnXMDp16mTExMQYEyZM0FbCEiSMIELjzz//LCPsMF0aWp/RJTySMN1A1bt3bxkUhsmD8CbOf7o2L0OBJAPoJo+3QRhxV79+ffXUU0+leORGuE9o9MO8h+ihjHH3GPTklQbPQGFLejLzzz//qPHjx0v0D8wfjvhbKF0w4CjcnDhxQqZD++KLL6SkQD+qLl26SHgjEjcUSAqyfPlyNX36dMm0eJIjJnCdOnWkC3moZoZFl/Rly5aphQsXyssDVLpbtGghpRhJGAokQkAmRsdHrFFvwdBVTD6DkgVTMmCeP0wsmjNnTnGDUqdOra5fv64uX76szp8/r06ePKkOHz4sPYwxxfRvv/0m4zQwThwNmGjpb9CggUqXLp2+IgkECiQCuXbtmmRuZHLMuItMj/n+4CIhoPalS5dkgn6IJGPGjBJgO2/evBLDC6+X77nnHnndfN9990kQbpJ4KBCXctttt0mvWga0Cy98i0WIAxQIIQ5QIIQ4QIEQ4gAFQogDFAghDlAghDhAgRDiAAXiUtD1hIQfCoQQBygQQhygQAhxgAIhxAEKxKWg+zsJPxQIIQ5QIIQ4QIEQ4gAFQogDFAghDlAghDhAgRDiAAVCiAMM++MSYmNj1YQJE3RKyZyIWbNmldhYoFixYhI5kYQWliAuAfF7ETTuyJEjsiCiIgLJYd5ABJ9u27atPpKEEpYgLqJ48eIysY0/CCKH0KO5c+fWFhIqWIK4iE6dOkmoUX8wDwnFER4oEBcBN8u/wM+ePbtMY0DCA10sl1GxYkW1ceNGnVIyZznqIOnTp9cWEkpYgriMzp07qyxZsuiUUg0bNqQ4wggF4jLgZuENFsDUBh06dJBtEh7oYrkQTIizYsUKmYUK7hUJHyxBXAjeZqFy3qxZM20h4YIliAvBDFNoRV+wYIFMrUbCB0sQF4I5Clu2bElxJAMUiEtp3ry53iLhxLUuFvxw4m0++eQTvRU+XCsQzCeOSfiJN+nRo4e6evWqToUPVwukb9++6pFHHtEW4hWuXLkiU18nh0BYByHEAQqEEAcoEEIcoEAIcYACIcQBCoQQBygQQhygQAhxgAIhxAEKhBAHKBBCHKBA/Fi/fr0qUqSIrCONYcOGqXbt2ulU8OA7YZguAs1h+fbbb30LIjTecccdsh0KIvl3DAYKxI9Ro0apgwcPqkWLFmlLZICM26dPH50KHny+cuXK6osvvpDYWlhmzJihmjRpIp3/0DP6wIED+uikAbFhOPDp06e1xb1QIDbwx+Kphzi38+fPj6iACI0bN1ZDhw7VqeDA90L3cHwe57GYOHGimjNnjvr999/VtGnT5LuHggIFCqiZM2dGRbRHCsTGunXr1P333y+hddauXat27Nih99wALg7CfE6dOlVcFLgkyHwWdhfGvs9yN/AUh93u3mAbn7FcEYgS14AdS1wuFc5rncfaj3tDGmt/Jk2aJOu4AlxDML1799YppS5cuOC7vv1c9vuy3y/APcAe3/Xtvwu+s6vAeBA3Yv5ZhukG6VRo6Nu3r3HkyBFZzAxtmE9cvccwzCctxs3IYmY0w8xIRu3atX3HmOIyKlSoIJ8FOAb7d+3aJefC57DGfnymcOHChvlU9x1rnQfXwedwfmxbnwE4BscC7Me2tQ/rKVOmyLY/OM5+nrjAPhyTKVMm+S7+18a9wg5wH9Y92u/J/hkci++Itf2YUHD58mUjbdq0OhVeWIJo8FQuVaqUuAdY8LS0u1mWi2NmDDVmzBiJboinuAXqLKZA5LMAx+7du1dt27ZN3A0zs8ga+0uXLq3uvPNO9c4778ixYOvWrbLGdZYuXSrnj4mJkbqCmeFknx3sx3ms0gGlXYkSJWQ7LjB/CCKhJATqKJUqVZJr58yZU2z4bczML3UYlAKoC6GE/fXXX9WqVatUz5495Tjc+/79+32/ARg0aJCs4c65EQpEg4zWqlUrn6uAdFxuVnxYGdwCmRGZMrHAVUGGdKromk9lETEy8Pbt2+MVCIQEscJ9SgwQKMSCNQSL5eLFizIdw759+/RRt4J7nz17dsTV54KBAjHBn4fMg8XKANiuUqVKwG+zkAnx9LRnBIQGxZM4GKx6CTDdE8eKLp7UKMWQCTEE1R6z1w7CA506dcpX2thB/WD8+PE6FT9nzpy5pSTDQwDfMa4SDuDelyxZItsodd0IBWKCP7Fq1ao3ZTBsN2jQQI0dO9ZX2XYCmRAljpURcM5z5845uj1xgVevcM/sFWcn4N4MGTLE8Tpwmfr37y+ukb2SDHHABWrdurW2xA3ODZfwlVde8T0A8KICDxH8RiNGjPDZ4R7aK/AQEfbjd7HbXYP5tHQloaqkowKJnwELKpkW2LbsWFCBt7ZR4cRipXEO/89YlVUs2LZs48aN8x2Dim5sbKwvjfPYz4FKLirN+Jz9OHuF18yksg/rhPD/TlZFGwu2YcP1cI9YI219D/sxWKzvDOy/Bbb9vzOua53Pfu+JJTkr6Yxq4nJQuqG0eu6557Ql+mFUExIwqH8E68aRwKFAXAj8favRDjPfoo5BwgMF4kLwAgGVYXjHgVbmSeKgQAhxgAIhxAEKhBAHKBBCHKBACHGAAiHEAQqEEAcoEEIccH1fLIxJIN7j7rvv5hRsTkAgu3fv1qmUA+MkcuXKpVPJB7qbZMyYUaVOnVpbvAeiz4Qb1wokEsCIP4S3+b//+z9tST7QDwuj+ezDfknoYR0kkWDwEYbUpoQ4SPJBgSQCDMPFyL9+/fppC4lWKJBE8Oijj6o33nhDlS9fXltItEKBBEmtWrVU9+7dVceOHbWFRDMUSBDExsaqf/75R40ePVpbSLRDgQQI6h0jR46U4NbEO1AgAYJ4vQjmxuGt3oLtIAGAkJoY5ooI6JEC20GSB5YgCTB8+HD122+/RZQ4SPJBgTiAwMwIioCAzsSbUCAOdOvWTcJ6VqtWTVuI16BA4gHxZNFbFA2CxLuwkh4HJ06cUPny5VOLFy9WDz/8sLZGFqykJw8USBy0aNFCpgz7/PPPtSXyoECSBwrED0wP8OSTT0opkhLjPAKFAkkeWAfx47XXXpPW8kgWByhUqJDeIuGEArExYMAAmRXpxRdf1BbidSgQzc6dO9XAgQOlYZAQCwpEgwZBTLb/wAMPaAshFIiAlvIVK1ZIoyAJPZgFCy8TMKeJfZJTN0CBmGBcOeYsD2QecRI8mI3XrWNoPC8QTIGMinnnzp21hZB/oUBMgXTp0kWnIge7W4IAeWj3aNeund6rZArmokWLih3jVJywT9mGBlBMx2zNx45zW/usKaKta8OGNdJx3Q+ua53Hcp/iupadY8eO+c6Nz1vHW5+PONBQ6FW+/vprmaY4Ulm3bp1Mn4wplzG1MqZhxhr2LFmyGPv27fNNuYypluMD+6zpl3EuawpnrHF+nM9+TI8ePcQGcIw1XbT9fqxta9rnChUq3HIe+7Vgt85j/y5gyZIlYo9EPF2CRGrpYQcRVBAkwg6G/1oRFeHfo90GYYjiAwO+Jk6cKCUQ4nnZ6d+//02jJFFSYPxLTEyMpM3Mrs6dO6d27Nghaet+sL9KlSrKFIDU3VCaAadrWeCeGzRooCZNmuQrNTAgLRLxrEBWrlwpb666du2qLe6ldOnSssQH3By4Oxg2jAwdDMj8ZungE0xCBHqtunXryngbCK9gwYLaGnl4ViAoPSCOSO5SYrog8vT2B5kL0z/jSQ8WLlwotvhAiYOSAk93O1u3btVb/4KnO+oI1tMfGRiT9sMe3/3Yie9a/qDUyp49u5owYYKcO2LRrpanMP90dNA0tm3bpi2RB/xz1C1wn02bNhWfHduWH49ta7H8/PiA/28/HotZ0fZtx8bGSn0C2ziX/dpYI2234R7s27g/61jTvZJt+wKbdbz9XnFfCd17SuPJ3ry9evVSx48fV1OmTNEW94G3QG7vzbtr1y5ZYyqDSMVzLhZcBMu9IikLBqRFtHtl4jmBQBzob1WzZk1tiQ6syjFKFvsSV1tESoM3XLg3VM4j9e2VhedcrDJlykiv3aeeekpb3AkyGAdMhR9PlSB463Po0CH1xBNPaAshznhKIHgdigYqL09bRoLDcwKpX7++ThGSMJ6pg+DtVc6cOWXSTazdDusgyYNnShCrtTkaxEGSD88IZP78+apRo0Y6RUhgeEYgVrwrQoLBEwJBr1H46kWKFNEWQgLDEwJh6UESiycEsnz5clWnTh2dcj/Wi0esr1+/7lswwSgJLZ4QyKlTp1SePHl0yp1g8JHVvypVqht/W7FixaTRE0u9evXYABoGPCGQkydPqrx58+qUO8EIvQwZMujUzWDgEedtDw9R31AI1yNt2rRR4X7ce++9asOGDTr1L/h+Fy9elDUJLVFfgkSDe2XRqVOnOIPboX2H4ggPFIiLgJt16dIlnboB3Kv27dvrFAk1FIiLwLRwNWrU0KkbwHVs0qSJTpFQQ4G4DLhZKDUs3D7wK9KhQFxG8+bNfcHWIJQ2bdrINgkPFIjLyJgxowz6AqiYP/LII7JNwkPUCwRznUfbG57nn39e5ciRQ7Vq1UpbSLiIeoFEI+hXBuE/++yz2kLCBQXiUlq3bq2qVq2qUyRcUCAuBZV1En4oEJfiFKyahA4KhBAHKBBCHKBACHGAAiHEAQqEEAcoEEIciNgRhaFqJd68ebOsy5YtK2viHd5//30ZIpAUIlYgmJZrwIABOpV4Zs6cKetmzZrJmniDl19+WR6OUS0QxLMqWbKktiSON99886Y18QYI0hEKgbAOQogDFAghDlAghDhAgRDiAAVCiAMUCCEOUCCEOECBEOIABUKIAxQIIQ5QIIQ44GmBrF+/XmXOnNk3c1O7du30npQH/dCs+/JfUvI+Efb0oYcekvvzAp4WSKVKldTx48dV7dq1ZYqziRMn6j0pT+PGjdWRI0dUhQoV1Lp162Q+Qixz5sxRkyZNkll7jx49qo+OH2TkpGRmCKJv376+eMBZsmRRS5culfvzAnSxNKVLl9ZbkQ0yJgSDmMN9+vTR1riBgHr06KFTiWPMmDFq5cqVOuU9KJA4gAuDZdiwYeLSwKVAZsPa38Wxu0Jw1+C2WeA4a5//fvvngnWZUPJhMh08ya1SxP98sFerVk0dOHBA5g+xrmF3K/F9rJLBcp2sc+B8+P4Q4bJly6TbOD6L81asWPGm72n9Tta1LWDHOadOnSr7Ai31IgkKxA/8qXBhsAC4OefOnVP169dXI0aMkKf3xo0b5Y9GpoINbs+FCxdUlSpV1KJFi+RzOM/+/fvFjs8ULlxYpqNG5kbmWrhwobhMOD8yerBuEEo8lCL4fFznwzVXr16tihQpIvcH9xH3PGrUKHErcV8AJQTo3r27RI3HOeBu4nvBhm24oPhMiRIlZKTnrl275DMA33Pr1q03XRs2fB9LXAsWLJDrYVZe63d1CxSIH71791Zt27aVBduYExCR1AcPHiyZG5w5c0Yyg90fxzaekMgsAGtkONiRse688075DICIRo8eLU/VmJgYecrPmDFD9iWGQM8H0SCD4jthQeadP3++2r17t4gZ3xnge+N74d7tID1t2jQZzAbwgMDnUZqBAgUKyH2MHTtWVa5c2ScuiND6fdwGBRIC8GTGn29/OiLTIPMgE+HpiVIImRdAPMg8eOpaS7AvCHAOzHuCcwZ6PhwHEdiPgxD++OMPub9gwffau3evTt0A95MzZ06dcj8USBKw/Hb4+nBnrCcwQKkC0eBJjUwzaNAgXwkEkFkTC1wqlBAvvviiPLVBoOdDSYH7tmMJ1yrhAgXfDW6T/7WLFi0q+6IBCiQJ7NixQ568EIeVUS3gh6MUsZ7U9teisKO0seodKIFQkQ0EfAbuC+o7qCOAQM+HgNdr165VVr0DQhk/frzcO14no35igc/jPE7AbYIbOXDgQF+lHeeoXr36Le6ZazH/vIikePHixrZt23Qq8QwYMECWuDB9ciNTpkwIWiGLWQIYpqviS8fGxhqmD+1Ljxs3zjArvbKNtVlZvWl/+fLlZY1zmBVjn91acKzplsi17ftxLvPpLXaLuD5vLTi/P/GdD98JNuva9u+MNdIA++zfxbqG/XjTbfN9f/tnrWtgwTaw3w9s9mPiuv9QY7qfxrFjx3Qq8TCqSZjAE7hOnTo3lSzw9+F62F0tEh4Y1SSCgbsxfPhwnboB3Bm8bcIbLeIeKJAwgBIC7QWo/FoNaHiSYW7BqPHNPQIFEibQlgDv1VouXrxI18qFUCCEOECBEOIABUKIAxQIIQ5QIIQ4QIH4gTYMjJcIdowGiU4oED/wKrZ///46RbwOBUKIAxHXFwtdMho1aiSDeTJkyCC9VNFb9r333pMn+8cff6zOnj0r9jJlyqiTJ09KqzV6nqLfEwb0bNmyRXq6dunSRfpznThxQvpGTZkyRc2ePVv16tVLdezYUV26dEm6jKOHq3UtnPPTTz9Ve/bsUa1atZIu7FeuXJEesNiHa91///1qyJAh+o5JJFK7du3onIINGRpjHf73v//JyD2QK1cuEcDly5dlCOn58+d9dmT+bNmySQbH8WixLliwoHRDP336tHQO/Pvvv0UMsAMIDNuwYdAPhGW/Frb/+usvsUMcOA+2U6VKJQKOhO4ieDBgpGPatGm1hfhjjaVPEhBIJGJ1j7a6RiONLtQANizo0o0u2lbXbqwrVKgg3bCtY9DV3Xzq+7phY1/Tpk193c6B/7Wwto4H1rVxfrMSr60pC+533759OkXCRcTVQay3SBgEZGZUbQ0MlBYY+GONkEuIQK+F/SjVLDeOeIeIEwi6hKOuYR+BB7cGQ0X9QWbFsFYrPhRG+MHdgj2QIahxXSsuMK4D47YxpTQF4jF0SRIxxDWSrl27drLGKDaM8rPslttjjXKzRtLZzwGXy9ru0aOH71jLbbL2Wct7773nG0GH/RZwu+zplAb3Rxcr/ETsiMJQEaoRhb/88ouUHpFSgmCMiSkQV4bScRNsBwkAuHhr1qyhe+VBKBAHIAyE9cGrQkQRId6DAnEA7R0ItMDRgN6FAiHEAQqEEAcoEEIcoEAIcYACIcQBCoQQBygQQhygQAhxgAJxKYUKFdJbJJxQIIQ4EPUCyZ49u4zlICQxRL1AMIYds74SkhiiXiCYnzyu0YiEBAIFQogDUS8QDHJCHQQhfggJlqgXCGApQhKLJwSCivqmTZt0ipDA8YRAnn/+eQk7SkiweEIgzZs3V99//706fPiwthASGJ4QCOL2IhA1AltHC4cOHdJbJJx4QiAA4UMR4Z2QYPCMQB5//HF16tQpifhNSKB4RiAApUg0uVkk/HhKIC1btpQo7du3b9cWQpzxlECqVq2qXnjhBTVs2DBtIcQZTwkEDB48WKZcw1QGhCSE5wSCadRQgmDCHEzNRogTnhMIwButypUrBz2DFfEeUT8/SHwcPHhQVatWTc2bN0+mbXMbnB8kefBkCQLQw3fAgAHqnXfe0RZCbsWzAgF4o4V6yMiRI7WFkJvxtEDABx98oD777DP1zTffaAsh/+J5gSC+FESCRsQNGzZoKyE38LxAwMMPPywiadSoEUMEkZugQDRdu3ZVLVq0UI899pi2EEKB3MR7772n8ubNKwOsIg1MY50jRw5ZEAwvXbp0qly5crKNpXbt2vpIEkooED++/fZbGb/eq1cvbYkM0BMZb9zgAp4/f15dvXpVXbhwQbZBu3btZE1Ci2cbChMCDXGvvPKKevfdd7Ul5SlZsqTasWOHTv0L7vXcuXMqW7Zs2kJCBUuQeMBzA2NHnnvuOW1JeTp37qwyZcqkU/9Sr149iiNMUCAOIMjDrl27VP369bUlZYGbde3aNZ26AeofiNpCwgNdrABo2rSp+Ps//vijtqQcVapUUevWrdMppdKnTy9RI9FLmYQe/qoBMHv2bFWiRAlVs2ZNdf36dW1NGeBmZc2aVaeUaty4McURRvjLBsi4cePk6V29evUUDbkDN+vPP/+UbbhX7du3l20SHiiQIEA7yUMPPSRP7ZQa154rVy5Vp04d2YZ3jLEtJHxQIEGC0YjokoJ6SUqFEOrUqZOUHmj5J2EGlXQSPCNGjDBSp05tfP7559qSfFy9etVImzatsXTpUm0h4YICSQJz5swxYmJijAEDBmhL8tG2bVu9RcIJXawkgLrIggULlPkkV2aGVX/99ZfeE35QWSfhhwJJImXLlpX+W+g8WKtWrXgr76EekAVxkvBDgYQAtEt88sknUnFHcDpMtWAH/ae6dOnCaeDciHa1SIiYPHmykTdvXuP999/XFsOoUqUKeisYbdq00RbiFtjVJAysWLFCvfrqq6pSpUoqf/780n6CbuooaSZMmKCaNWumjySRDgUSJjBpKMZorF69+qbKe+7cuSWeVZYsWbSFRDKsg4SJmJgYtWfPnlvebKGbCOojxB1EZQny7LPP+kbapRSIkHLs2LE4OzemSZNGhstiDnfizHfffae3UoaoFQj6KKE7RkqAdhGzki5zI8b35gouFt58xTUAityge/fu6sCBAzqVQkAg0cYzzzwjb5NSkhMnThhmhdxo0KCBkT59eiNHjhzyJstaYGvZsqU+mvjz+++/G4ULF9aplIN1kDCB6CiopCM49pUrV2T4LsZy5MuXzzeeY/78+Wr69OmyTSITCiSZwLDdjz76SOol6AXcr18/CaCNeFxnz57VR5FIgwJJAe69914VGxurNm/erLZs2aK+/vprvYdEGhRICoPXwRjfQSITCoQQBygQQhygQAhxgAIhxAEKhBAHKBBCHKBACHGAAvHj6NGjMvc4phTwX2DH/kgG3Vvs94w4XiTxUCB+oAs6BjshSsnQoUMleqG1wJaSjB8/Xq1fv16nbgbjTBD1EVj3e+TIETV27NiAJ9fBOfr27esLbZoUnO7VTVAgQTBo0KAUG8OBzDZkyBCduhV0DQdjxoyRNcC9zpw5U82YMUMiryQEPrty5UqdSjwJ3auboEACAG4VOhfagetiuTH2JzTsFStWlCVz5sySWbAfi/UZPOlxTqz9P4/j8Tnr3MjYsCGk0MGDB1XlypVvcZtwLoxBadCgwS1DeRGVHkG3R4wYob766ivf9VFK4LpI43xY+vTpIx0p0eMY14QNx6JUwXGWi4l7iu88Cd2r6zCL4qgjFONBELkQP4+12CMZmq6XL226MUaRIkXEhkiLODZTpkzGunXrZD/s1jmwjeMrVKhglC9fXo7BgjTsAOfFcda2dR0ch/ER1nntwIZr4vpxgXPgHnENnLt27drGhQsXfPus69n3Wd/Fum/YsM+6H6fzON1roHA8iAsw/3CfL29mMLHhiYlxHFZkQ7gxo0ePFl8fT0x8Bk9sPLlB7969pe6CBdsYC4KZagcPHixRT8CZM2fkGmDixIlyHChdurTUh0JRJwgWBKbDd8HsuXDfUDJhzkaUVJH+oiKUUCABABGg/gEw09TevXtl2wI9cnPmzKlTSQeCgPsClycQcP08efKorVu3asutFCtW7KaJdxJDqL+nG6BAggSZDJnNPzMWLVo0yRkQwJ9HHQB1BjzBAwEChqBQivk/3a36CZ7+DDUUPBRIkCCToTI8cOBAqZCCUaNGycxTSc2AyMwbN25Uy5cv97lfgWKJCQErLJcM56tWrZqIx4rlC7fNAvePN1woqeJ7y4XSEqUmwPfE+SHIYM/jWm5URaKLpFTSUZFFhRY/DRZ7RdQOKqXWMVbF1V6xtWxmxvXZYmNj5XxWety4cb5rWZVo+3lRkccaNquSbKXjw/55LLi+Hfv3w/maNm16U+UalX3sw3eBHRVly2a/rtN5Ar1XJyKlkh7VYX9at26tLSQx4BUtXkjMnTs32d0zlFymyFI87A9dLEIcoEBInKAuYTUcWq30XoQCIXGCSj28byxom/EqFAghDlAghDhAgRDiAAVCiAMUCCEOUCCEOECBEOIABUKIA1HdF+uuu+7SFuJGWrZsmeJ9saJWIJhhNpo5fPiwzGKVLl06bYlO1qxZo7dShqgUiBdAkATMt45ACiR8sA5CiAMUCCEOUCCEOECBEOIABUKIAxQIIQ5QIIQ4QIEQ4gAF4lIKFSqkt0g4oUAIcYACIcQBCoQQBygQQhygQAhxgAJxKYcOHdJbJJxQIIQ4QIEQ4gAFQogDFAghDlAghDhAgRDiAAVCiAMUCCEOUCAuAfOyY6ZZa0mbNq3MVZ45c2ZZMBc6CT0UiEt4+umnZb7AixcvyvL333+rS5cuyZImTRrVvn17fSQJJYys6BKuXLmiKlSooHbu3Kkt/4Ioi8eOHVO33367tpBQQYFECMePH1dbtmxRO3bskLjCCCuK/lZHjx5VJ0+eVNeuXZOSAkLx/8sQnzdVqlTqn3/+UXny5FH58+dXBQsWlLCkCOB9zz33iDtWrFgx/QkSKBRICvHzzz+rn376Sa1evVqtXbtWXKUyZcqoEiVKSKYuWrSoKly4sGR2BKnOmjWrOnjwoOyDe2WRPXt29fHHH6vmzZuLeCAmiA3i2r9/v4gNpc62bdvUhQsXVOXKlVXVqlXVAw88oGrVqqUyZcqkz0TiggJJJs6ePSuT83/33XdqwYIF6u6771YPPvigql69uqpSpUrAT3dkbnvE8wwZMoi44GYlBMSzbt06ESXEuWzZMlWnTh3VsGFDmRed00XEAQRCwsfMmTONp556ysiYMaPRsmVLY9KkScaJEyf03uD56KOPjGzZsuGhJgvOmViuXr1qmKI1unXrZhQqVMioXbu2MX78eOPixYv6CEKBhAHTlTGGDh1qmKWC8dhjj4kokBlDgVkS+cRhulfGvHnz9J6kM3/+fKNNmzYi5pdeeskw60N6j3ehQEKIWTcwBg0aZJj1BaNr167Gxo0b9Z7QUrduXZ9AwoFZhzHeeust4/bbbze6dOli7N27V+/xHmwHCRGTJ08WHx4zP23atEmNGzdOlS9fXu8NLR07dpTKOaYoCwd4Xdy/f3/5LnhRgJcHgwcP1ns9hhYKSSSoT6AeYFZ2jVWrVmlreLl27ZqRLl06w6xka0t4OXr0qNG+fXujSpUqyfYdIwUKJAn8+OOPRpEiRQzz6aotyQcybHIzbdo0I2fOnFKR9woUSCJBZsmRI4e8BUoJ5s6dq7eSl507dxr333+/Ybpg2hLdsB0kEXz55Zfq5ZdfVnPmzFGVKlXSVu+AdpemTZtKGw46UUYzFEiQoJENjWtLly6VRjuvApGgBzFeGHTp0kVboxAIhAROxYoVjSlTpuhU0kB7CRrn8DfEtZgllCxWum3btvqTN0Bbi7XvwQcflMVK25dMmTIZ69at058KHVu2bDEyZMhgbNq0SVuiDwokCNDG4Z9JQwEyuv95kaHHjRunU/+KAWs7cR1nP5ddhP6fDQUffPCBYbpbOhV9sB0kQK5evareffddFRsbqy3hBXWbrl276tSNTonw++Hzr1+/XlsTBoOr4A6aogn6s4HQs2dP6YG8cuVKbYkuKJAAmT59utQ90HU83KBTIxZ/+vXrJwOnmjVrJt3ggwEZGSxatEjWoQSDtaZOnapT0QUFEiCLFy9W9evX16nQM2nSJOmRi6VJkybaeiummyTrPn36yDpQYmJiZKzI1q1btSV0oDfwDz/8oFPRBQUSIJs3b5YRfeECLpDp8sqC18fxUaBAATVz5kw1Y8aMOEuZlKBcuXLqwIED8mYr2qBAAuTcuXMqV65cOhVeMDYDS3ygfoK+Us8884wMtgqEI0eOqFOnTsnIwnCQI0cO9ccff+hU9ECBBAhG3v355586lfL07t1b6iPdunULKGOOGjVKXCyUVOEAgSQyZsyoU9EDBRIgqJxj2GpyATE+8cQTvrdOGK/uD+ojRYoU0am4wXnQoIc6zujRo8VFCzUYP48hwShFog552UsSBO/7O3TooFOhIaGGQrRn+B+DhkM7SKN9w+lc6FBpulj6E6EHoxxNd0+nogt2NQkQ+PAY74GACNmyZdNWAkxhqpdeekk9+eST2hI90MUKELwmNUsQNWzYMG0hYNasWfL2KhrFAViCBAGCs+EtECKToCer17GC2Y0cOVLaQqIRliBBgBhVY8aMUZ06dVJnzpzRVu+CEhUlR7SKA7AESQRvv/22tByjJEHgaC/SvXt3eUhMmzZNW6ITliCJAB0W8eq0bt268orTa6DvFRodo10cgAJJJG+++aZq3bq11EVmz56trdEN2mJq1qwpPYvRedMTwMUiiWfJkiWGWXE3evbsaVy+fFlbow+zIm6Y7qTxySefaIs3YAmSROBqIQ4WIqwj3u6HH36o90QH8+bNUzVq1JBYvhs3bpQhtp5CC4WEAIzua9asmVG2bFlpXXYziNZSr149iWAya9YsbfUefIsVBlasWCH9njDKrl27dqpNmzaqVKlSem/kgor3f//7XzVx4kTpW9WjRw/VokULvdebUCBhBPNyoJMgMh1CeGLILLqxYw6QSOHEiRNq7ty5MgYFr65btWolPX4xNQOhQJINDHXF2y60nWBOD9Rd8EYIb8EwWU5ycfr0aQldhNINY9W3b98uDX0QLxr9MDko+RcKJAVApR6ZE67YqlWrZBQhAl0jSHTJkiVV8eLFfTNMpU6dWn8qONAtBm00mGEKQRUw1BbXRWdLiBIzTKGTIWaZIvFDgUQAGK6KzIt2BjzRd+/e7ZujEJHWMdAJYy1QL8CgJGtOQvx1mI4NfaIw7gOjHlFCQAQ5c+b0zVEIlw59yCBCN9SFIgkKJIK5fv26ZHZUnjGFG0SAnrMIQYR9EAlcIrhsCO8DEeXOnVtEBRtJKkr9P8wC0paUe5jsAAAAAElFTkSuQmCC;" vertex="1" parent="1">
          <mxGeometry x="40" y="50" width="200" height="425" as="geometry" />
        </mxCell>
      </root>
    </mxGraphModel>
  </diagram>
</mxfile>
